<?xml version="1.0" encoding="UTF-8"?><svg id="Layer_2" xmlns="http://www.w3.org/2000/svg" viewBox="0 0 1919.56 315.59"><defs><style>.cls-1{fill:#fff;stroke-width:0px;}</style></defs><g id="Layer_1-2"><rect class="cls-1" x="810.81" y="35.62" width="8.52" height="249.7"/><path class="cls-1" d="m256.96,152.03c0-21.94-6.34-40.02-6.61-40.76-.31-.89-.97-1.6-1.82-2-.85-.39-1.83-.42-2.7-.09l-102.97,39.6c-1.34.52-2.22,1.8-2.22,3.24s.88,2.72,2.22,3.24l102.96,39.61c.4.16.83.23,1.25.23.51,0,1.02-.11,1.48-.34.85-.4,1.51-1.14,1.81-2.03,7.28-21.74,6.62-40.08,6.59-40.7m-13.53,32.11l-83.5-32.12,83.48-32.11c1.88,7.01,4.4,18.9,4.4,32.25v.09c0,.15.47,14.41-4.38,31.89"/><path class="cls-1" d="m116.34,152.02c0,1.43-.89,2.72-2.23,3.24L11.14,194.85c-.4.16-.82.23-1.24.23-.5,0-.99-.1-1.45-.32-.85-.39-1.51-1.11-1.83-1.99-.27-.76-6.6-18.83-6.6-40.76-.03-.63-.69-18.97,6.58-40.7.3-.9.96-1.64,1.82-2.04.85-.4,1.84-.44,2.72-.09l102.96,39.6c1.34.52,2.23,1.81,2.23,3.25M13.58,184.12l83.48-32.11L13.55,119.9c-4.86,17.51-4.39,31.73-4.38,31.88v.09c0,13.32,2.52,25.23,4.41,32.25"/><path class="cls-1" d="m224.69,66.82c-15.18-17.17-31.41-25.76-31.96-26.06-19-10.97-37.82-14.52-38.61-14.67-.92-.17-1.87.04-2.63.59-.77.54-1.28,1.37-1.43,2.29l-17.19,108.97c-.22,1.42.45,2.83,1.7,3.55.53.31,1.14.47,1.73.47.78,0,1.55-.26,2.19-.77l85.78-69.37c.74-.59,1.2-1.46,1.28-2.4.09-.95-.22-1.88-.85-2.59m-80.48,57.97l13.93-88.35c7.01,1.88,18.57,5.64,30.13,12.31.03,0,.05.03.08.03.13.07,12.72,6.81,25.43,19.74l-69.57,56.26Z"/><path class="cls-1" d="m224.26,232.22l-85.78-69.37c-1.12-.9-2.67-1.03-3.92-.31-1.24.72-1.91,2.13-1.69,3.55l17.18,108.97c.15.94.66,1.77,1.45,2.31.59.4,1.28.62,1.98.62.22,0,.46-.03.69-.07,22.45-4.56,38.02-14.31,38.54-14.65,19-10.97,31.48-25.49,32-26.1.61-.72.9-1.65.82-2.58-.09-.93-.55-1.78-1.28-2.38m-36.24,23.2s-.05.03-.08.04c-.12.09-12.18,7.6-29.8,12.15l-13.93-88.37,69.54,56.24c-5.14,5.14-14.19,13.28-25.72,19.94"/><path class="cls-1" d="m122.42,162.54c-1.25-.72-2.8-.59-3.92.31l-85.79,69.36c-.73.59-1.2,1.46-1.28,2.41-.08.94.23,1.88.86,2.58,15.18,17.17,31.4,25.77,31.96,26.06,19,10.97,37.81,14.52,38.6,14.67.22.04.42.06.63.06.72,0,1.42-.22,2.01-.64.77-.54,1.28-1.37,1.42-2.29l17.19-108.97c.22-1.42-.45-2.83-1.69-3.55m-53.78,92.7c-.13-.07-12.73-6.81-25.43-19.74l69.57-56.26-13.94,88.35c-7.02-1.89-18.59-5.65-30.12-12.3-.03-.02-.05-.03-.08-.04"/><path class="cls-1" d="m124.17,165.53c-.09-.9-.71-1.65-1.57-1.9-.86-.24-1.79.07-2.34.78l-48.77,64.81c-.35.47-.51,1.07-.4,1.65.09.59.42,1.1.91,1.44,13.84,9.49,26.88,12.7,27.34,12.81,14.28,4.08,27.31,3.67,29.67,3.56.19,0,.31-.02.35-.02.59-.03,1.13-.31,1.52-.75.38-.45.56-1.03.51-1.61l-7.22-80.79Zm-23.12,73.29s-.06-.02-.09-.03c-.1-.03-10.13-2.52-21.41-9.38l39.11-51.98,5.79,64.76c-5.25-.1-14.09-.72-23.4-3.38"/><path class="cls-1" d="m223.65,130.38c-3.96-15.56-11.73-27.24-12.05-27.72-.33-.49-.84-.82-1.41-.93-.57-.1-1.16.03-1.65.37l-66.17,46.92c-.73.52-1.07,1.43-.84,2.3.22.87.96,1.52,1.84,1.62l80.56,9.51c.12.02.24.03.37.02.46-.03.9-.2,1.27-.49.46-.38.74-.93.78-1.52,1.23-16.73-2.56-29.62-2.7-30.08m-6.32,1.71s.02.06.03.09c.03.1,2.91,10.03,2.66,23.23l-64.59-7.63,53.03-37.6c2.45,4.39,6.46,12.48,8.87,21.91"/><path class="cls-1" d="m124.11,137.95l-17.18-108.97c-.15-.94-.67-1.77-1.45-2.31-.78-.54-1.74-.74-2.67-.55-22.46,4.56-38.02,14.31-38.54,14.65-19,10.97-31.48,25.49-32,26.1-.61.72-.9,1.65-.82,2.58.09.93.54,1.78,1.28,2.38l85.78,69.37c.63.51,1.4.78,2.18.78.59,0,1.2-.16,1.73-.47,1.25-.72,1.92-2.13,1.7-3.55M43.24,68.55c5.14-5.14,14.17-13.26,25.73-19.94.03-.02.05-.03.08-.05.12-.08,12.18-7.6,29.8-12.15l13.93,88.38-69.54-56.24Z"/><path class="cls-1" d="m121.87,138.7l-31.43-74.78c-.22-.54-.67-.97-1.22-1.18-.55-.22-1.16-.19-1.71.06-15.17,7.18-24.51,16.83-24.83,17.17-11.59,11.12-17.92,23.63-18.18,24.15-.27.53-.3,1.13-.11,1.68.19.56.6,1.01,1.13,1.26l73.44,34.44c.33.16.67.22,1.02.21.52-.03,1.02-.23,1.4-.6.65-.62.84-1.58.5-2.4m-54.6-54.08s.04-.04.06-.06c.08-.08,7.3-7.48,18.9-13.78l25.2,59.96-58.86-27.61c2.61-4.29,7.66-11.75,14.7-18.52"/><path class="cls-1" d="m418.35,147.23c-7.86,0-14.23,6.38-14.23,14.23s6.38,14.24,14.23,14.24,14.23-6.38,14.23-14.24-6.37-14.23-14.23-14.23"/><path class="cls-1" d="m406.31,183.72v94.27h24.43v-94.45c-3.74,1.84-7.94,2.88-12.39,2.88s-8.39-.97-12.04-2.71"/><polygon class="cls-1" points="446.21 197.22 494.18 197.22 442.21 263.05 442.21 278.1 524.68 278.1 524.68 256.5 476.33 256.5 526.05 192.52 526.05 175.61 446.21 175.61 446.21 197.22"/><polygon class="cls-1" points="537.72 197.22 585.69 197.22 533.71 263.05 533.71 278.1 616.18 278.1 616.18 256.5 567.83 256.5 617.55 192.52 617.55 175.61 537.72 175.61 537.72 197.22"/><path class="cls-1" d="m345.73,172.63c-7.43,0-18.04,3.17-24.28,9.33v-6.45h-24.43v140.01h24.43v-42.55c7.2,4.74,15.53,7.47,24.28,7.47,29.85,0,51.27-24.14,51.27-53.91s-21.42-53.91-51.27-53.91m-.49,85.22c-18.22,0-27.19-15.73-27.19-31.31s9.06-31.31,27.19-31.31,27.19,15.73,27.19,31.31-8.97,31.31-27.19,31.31"/><path class="cls-1" d="m727.53,259.77c-5.16,0-7.09-3.22-7.13-11.17v-73.06h-25.32v5.74c-6.31-5.7-16.41-8.65-23.55-8.65-29.85,0-51.27,24.14-51.27,53.91s21.42,53.91,51.27,53.91c10.95,0,21.22-4.27,29.48-11.41,1.69,3.61,4.19,5.94,6.47,7.51,4.25,2.51,9.25,3.08,13.5,3.08s8.48-.39,11.37-1.54v-18.7c-1.35.19-3.47.38-4.83.38m-55.51-1.92c-18.22,0-27.19-15.73-27.19-31.31s9.06-31.31,27.19-31.31,27.19,15.73,27.19,31.31-8.97,31.31-27.19,31.31"/><path class="cls-1" d="m349.93,133.64c15.27,0,29.3-5.08,41.11-17.71l-15.05-15.67c-6.93,7.13-15.06,11.19-26.06,11.19-17.91,0-31.55-13.63-31.55-32.16s13.63-32.16,31.55-32.16c10.99,0,19.13,4.07,26.06,11.19l15.05-15.67c-11.8-12.61-25.84-17.71-41.11-17.71-30.93,0-55.77,23-55.77,54.34s24.83,54.34,55.77,54.34"/><path class="cls-1" d="m416.97,28.48c7.87,0,14.23-6.38,14.23-14.23s-6.37-14.24-14.23-14.24-14.23,6.38-14.23,14.24,6.38,14.23,14.23,14.23"/><path class="cls-1" d="m404.93,36.49v94.27h24.43V36.32c-3.74,1.84-7.94,2.88-12.39,2.88s-8.39-.97-12.04-2.71"/><path class="cls-1" d="m498.38,133.64c15.27,0,29.31-5.08,41.12-17.71l-15.06-15.67c-6.93,7.13-15.06,11.19-26.06,11.19-17.91,0-31.55-13.63-31.55-32.16s13.63-32.16,31.55-32.16c10.99,0,19.13,4.07,26.06,11.19l15.06-15.67c-11.8-12.61-25.85-17.71-41.12-17.71-30.93,0-55.77,23-55.77,54.34s24.83,54.34,55.77,54.34"/><path class="cls-1" d="m563.9,28.48c7.87,0,14.23-6.38,14.23-14.23s-6.37-14.24-14.23-14.24-14.23,6.38-14.23,14.24,6.38,14.23,14.23,14.23"/><path class="cls-1" d="m551.87,36.49v94.27h24.43V36.32c-3.74,1.84-7.94,2.88-12.39,2.88s-8.39-.97-12.04-2.71"/><path class="cls-1" d="m628,112.27c-13.23,0-22.8-5.9-27.07-12.82l-15.67,13.23c6.32,12.22,20.97,20.77,42.34,20.77,29.3,0,42.13-14.86,42.13-32.57,0-14.85-8.55-23.81-27.48-30.53-17.29-6.31-25.84-7.32-25.84-15.06,0-5.5,4.68-9.16,12.41-9.16,11.2,0,18.12,3.87,22.39,8.95l13.63-14.45c-7.12-8.95-18.52-15.47-35.61-15.47-19.54,0-36.23,10.99-36.23,30.74,0,15.67,10.18,23.4,25.24,28.9,15.88,5.7,28.09,7.74,28.09,16.29,0,5.29-4.27,11.19-18.32,11.19"/><path class="cls-1" d="m669.74,37.25v-.06c0-6.54,5.32-12.03,12.06-12.03s11.99,5.42,11.99,11.96v.06c0,6.55-5.31,12.03-12.06,12.03s-12-5.41-12-11.96m22.61-.06v-.06c0-5.85-4.54-10.58-10.55-10.58s-10.62,4.8-10.62,10.65v.06c0,5.85,4.54,10.59,10.55,10.59s10.62-4.81,10.62-10.66m-15.65-6.89h5.83c1.73,0,3.07.52,3.97,1.42.69.66,1.07,1.59,1.07,2.73v.07c0,2.11-1.25,3.42-3.03,3.94l3.52,4.93h-2.97l-3.18-4.52h-2.72v4.52h-2.49v-13.08Zm5.73,6.39c1.56,0,2.49-.76,2.49-1.96v-.06c0-1.27-.93-1.96-2.49-1.96h-3.12v3.99h3.12Z"/><path class="cls-1" d="m975.25,112.6c-4.83-1.81-6.58-6.09-6.99-10.56-.1-2-1.85-5.71-3.49-5.71h-.72c-1.34,0-2.36.95-2.36,2.19.1,1.24.21,2.19.21,2.66l.1,9.99c0,21.03.21,31.97.51,32.64.1.29.62.95,1.44,1.9.72.95,1.13,1.71,1.13,2.38,0,.48-.1.76-.41,1.05-1.23,1.62-2.16,1.52-5.04,1.43h-8.22l-2.67.1c-2.26,0-3.7-.38-4.21-1.24-.31-.47-.51-.95-.51-1.24,0-.67.41-1.33,1.13-2.19.72-.86,1.13-1.33,1.23-1.62.51-.86.72-10.18.72-27.97l-.1-17.98v-.1c0-1.14-1.03-2-2.26-2h-.72c-1.64,0-3.29,3.52-3.6,5.71-.41,4.47-2.26,8.75-6.89,10.56-.1.1-.41.1-.72.1-1.13,0-2.06-.76-1.95-1.9l.82-24.26c0-1.43,1.23-2.57,2.77-2.57h39.77c1.54,0,2.77,1.14,2.88,2.57l.82,24.26c0,1.24-1.44,2.28-2.67,1.81Z"/><path class="cls-1" d="m1034.06,143.99c.1.29.62.95,1.34,1.9.72.95,1.13,1.71,1.13,2.38,0,.38-.1.76-.31,1.05-.82.95-1.95,1.43-3.39,1.43h-9.87l-2.67.1c-2.26,0-3.7-.38-4.32-1.24-.31-.29-.41-.76-.41-1.24,0-.67.31-1.33,1.03-2.09.72-.76,1.13-1.33,1.34-1.71.41-.67.62-7.42.62-20.08,0-.76-.72-1.33-1.54-1.05l-11.61,3.43c-.51.19-.82.57-.82,1.05.1,10.37.31,15.79.41,16.08.1.29.62.95,1.34,1.9.72.95,1.13,1.71,1.13,2.38,0,.38-.1.76-.31,1.05-.82.95-1.95,1.43-3.39,1.43h-9.87l-2.67.1c-2.26,0-3.7-.38-4.32-1.24-.31-.29-.41-.76-.41-1.24,0-.67.31-1.33,1.03-2.09.72-.76,1.13-1.33,1.34-1.71.51-.86.72-11.32.72-31.21l-.1-17.89c-.1-.76-.51-1.43-1.03-2.09-.62-.67-1.03-1.14-1.34-1.52-1.64-2.19-2.88-5.04-2.88-7.61v-.38c0-.38.31-.67.62-.57.72.09,1.44.29,1.95.38.51.09,1.03.19,1.44.29,3.29.76,5.55,1.14,9.25,1.05l5.14-.29c.31,0,.72-.09,1.23-.19.41-.1.82-.1,1.34-.1,1.23,0,1.95.38,2.26,1.24.1.19.1.47.1.86,0,.67-.1,1.24-.41,1.71-.51.86-1.13,2.19-1.95,4-.72,1.43-1.03,3.24-1.03,5.42,0,.86.1,2.09.21,3.71l.1,10.66c0,.76.72,1.33,1.54,1.05l11.72-3.43c.51-.19.82-.57.82-1.14v-9.99c0-2.76-.41-4.95-1.13-6.57-.41-.86-1.13-2.09-2.16-3.81-.31-.47-.41-.95-.41-1.62,0-.86.31-1.52,1.03-2,.31-.1.72-.19,1.23-.19s1.13,0,1.64.09c.51.1.92.19,1.44.19,1.64.09,2.88.19,3.6.19,2.47,0,6.37-.19,8.12-.29,1.23-.1,2.06-.19,2.57-.19,1.23-.1,2.47.86,2.47,2,0,.67-.1,1.24-.41,1.71-.31.47-.62,1.05-1.13,1.81-.51.76-.92,1.43-1.23,2-.72,1.52-1.03,3.24-1.03,5.04,0,.67.1,1.52.21,2.38.1.95.1,1.62.1,2.09l.1,9.42c0,21.41.21,32.54.51,33.21Z"/><path class="cls-1" d="m1091.61,139.52c0,5.42-.92,8.75-5.45,10.28-1.95.67-4.32,1.05-7.09,1.05l-5.96-.1h-4.01c-5.24,0-9.25-.09-11.92-.19h-3.29c-.72.1-1.75.1-3.08.1-2.36,0-3.8-.38-4.42-1.24-.31-.29-.41-.67-.41-1.14,0-.57.41-1.24,1.13-2.09.72-.86,1.13-1.43,1.23-1.71.41-1.14.62-11.61.62-31.49v-17.32c-.1-.76-.51-1.43-1.03-2.09-.62-.57-1.13-1.05-1.44-1.43-1.64-2.19-2.77-5.23-2.77-7.61v-.29c0-.38.31-.67.62-.57.72.09,1.44.29,1.95.38.51.1,1.03.19,1.44.29,3.29.76,5.55,1.14,9.25,1.05,7.3-.38,12.54-.76,15.93-1.14,1.13-.1,4.32-.48,6.47-.48,2.57,0,4.73.38,6.58,1.05,4.52,1.52,5.65,5.52,5.65,10.85,0,5.04-.92,7.61-2.77,7.61-.41,0-.72-.1-1.03-.19-.51-.19-.92-.57-1.23-1.05-.41-.47-.72-.86-.82-.95-2.36-2.95-5.04-4.19-9.25-4.66-1.54-.19-2.98-.29-4.52-.29-1.64,0-4.01.09-7.19.38-.72.09-1.03.47-1.03,1.05l.1,12.27c0,.76,1.03,1.33,1.75.95l4.42-1.9,4.73-2c1.23-.29,1.95.86,2.26,3.43.21,2.19-.1,4.19-1.03,5.99-1.75,3.14-4.93,4.85-9.56,6.37-1.34.38-2.26,1.52-2.26,2.76,0,6.76.1,10.66.21,11.8,0,.86.62,1.52,1.54,1.52,3.29.19,5.55.29,6.78.29,1.13,0,2.47-.1,3.8-.19,4.21-.47,6.89-1.71,9.25-4.66.31-.38,1.13-1.62,2.06-2l.92-.19c1.95,0,2.88,2.47,2.88,7.52Z"/><path class="cls-1" d="m1176.04,124.11c0,14.56-8.73,26.45-34.32,26.74v-.1h-1.23c-1.13-.09-2.47-.09-4.11-.09-1.54,0-2.98,0-4.11.09l-2.67.1c-2.26,0-3.7-.38-4.32-1.24-.31-.29-.41-.76-.41-1.24,0-.67.31-1.33,1.03-2.09.72-.76,1.13-1.33,1.34-1.71.51-.86.72-11.32.72-31.21l-.1-17.89c-.1-.76-.51-1.43-1.03-2.09-.62-.67-1.03-1.14-1.34-1.52-1.64-2.19-2.88-5.04-2.88-7.61v-.38c0-.38.31-.67.62-.57.72.09,1.44.29,1.95.38.51.09,1.03.19,1.44.29,3.29.76,5.55,1.14,9.25,1.05,1.85-.1,4.01-.19,6.58-.48,3.6-.29,6.37-.38,8.32-.38l3.19.1c2.06,0,4.01.29,5.96.95l.72.29c4.83,1.24,8.43,4.47,9.25,9.04v.47c.21,1.14.31,2.19.31,3.24,0,2.76-.72,5.52-2.06,8.28,5.24,4.66,7.91,10.47,7.91,17.6Zm-33.4-26.64c0,5.04,0,8.75.1,11.32,0,.48.51.86,1.03.76l3.19-1.05c1.34-.47,2.67-1.05,4.01-1.9,2.47-1.43,5.04-4,5.04-6.18,0-1.43-.92-2.47-2.47-3.14-1.44-.47-3.19-.76-5.14-.76-1.13,0-1.95,0-2.47.09l-2.47.1c-.51,0-.82.38-.82.76Zm2.47,41.1c13.87-1.14,17.37-6.47,17.37-14.94,0-2.66-.62-4.95-1.75-6.76-.31-.47-.82-.76-1.54-.76-.41,0-.72.09-.92.19l-1.34.76c-2.77,1.52-6.27,3.14-10.69,4.95l-2.57,1.14c-.41.1-.62.38-.62.86v12.75c0,1.05.92,1.9,2.06,1.81Z"/><path class="cls-1" d="m1229.51,139.52c0,5.42-.92,8.75-5.45,10.28-1.95.67-4.32,1.05-7.09,1.05l-5.96-.1h-4.01c-5.24,0-9.25-.09-11.92-.19h-3.29c-.72.1-1.75.1-3.08.1-2.36,0-3.8-.38-4.42-1.24-.31-.29-.41-.67-.41-1.14,0-.57.41-1.24,1.13-2.09.72-.86,1.13-1.43,1.23-1.71.41-1.14.62-11.61.62-31.49v-17.32c-.1-.76-.51-1.43-1.03-2.09-.62-.57-1.13-1.05-1.44-1.43-1.64-2.19-2.77-5.23-2.77-7.61v-.29c0-.38.31-.67.62-.57.72.09,1.44.29,1.95.38.51.1,1.03.19,1.44.29,3.29.76,5.55,1.14,9.25,1.05,7.3-.38,12.54-.76,15.93-1.14,1.13-.1,4.32-.48,6.47-.48,2.57,0,4.73.38,6.58,1.05,4.52,1.52,5.65,5.52,5.65,10.85,0,5.04-.92,7.61-2.77,7.61-.41,0-.72-.1-1.03-.19-.51-.19-.92-.57-1.23-1.05-.41-.47-.72-.86-.82-.95-2.36-2.95-5.04-4.19-9.25-4.66-1.54-.19-2.98-.29-4.52-.29-1.64,0-4.01.09-7.19.38-.72.09-1.03.47-1.03,1.05l.1,12.27c0,.76,1.03,1.33,1.75.95l4.42-1.9,4.73-2c1.23-.29,1.95.86,2.26,3.43.21,2.19-.1,4.19-1.03,5.99-1.75,3.14-4.93,4.85-9.56,6.37-1.34.38-2.26,1.52-2.26,2.76,0,6.76.1,10.66.21,11.8,0,.86.62,1.52,1.54,1.52,3.29.19,5.55.29,6.78.29,1.13,0,2.47-.1,3.8-.19,4.21-.47,6.89-1.71,9.25-4.66.31-.38,1.13-1.62,2.06-2l.92-.19c1.95,0,2.88,2.47,2.88,7.52Z"/><path class="cls-1" d="m1275.28,113.26c5.24,4.28,9.66,10.28,9.66,17.13,0,4.66-1.23,8.66-3.7,11.89-4.93,6.57-13.26,9.71-21.89,9.71-3.39,0-6.89-.86-10.48-2.47-7.19-3.33-12.74-9.8-12.74-18.17,0-5.23,3.08-11.32,7.3-15.22.62-.48,1.23-.67,1.75-.67s1.03.19,1.54.47l6.68,4.95c.62.57.92,1.14.92,1.71,0,.76-.31,1.33-.82,1.71-2.06,1.81-4.01,4.66-4.01,6.85,0,5.23,5.65,8.47,9.87,8.47,5.04,0,12.23-1.71,12.23-9.23,0-4.28-4.83-8.18-14.18-14.56-1.75-1.05-3.39-2.28-5.14-3.62-5.34-3.9-8.32-9.32-8.32-14.75,0-1.81.31-3.43.82-4.85,2.36-6.09,8.63-9.8,16.85-9.8,2.77,0,5.24.57,7.6,1.71.51.29,1.23.38,1.95.38.62,0,1.23-.1,1.85-.29,1.54-.48,3.08-.76,4.62-.86.72.38,1.13.67,1.23.86.1.29.21,1.43.21,3.43l-.1,7.52c-.1.95-.1,2-.1,3.24,0,1.05-.21,1.81-.51,2.38-.82,1.43-2.36,1.52-4.73,1.52-.82,0-5.45,0-6.27-.47-.72-.29-.92-.67-1.03-1.33l-.62-2c-.31-1.33-1.03-2.28-2.16-2.95-.51-.47-1.23-.67-2.06-.76-1.75,0-4.11.57-4.11,2.85,0,1.43,1.03,2.86,3.19,4.47l4.73,3.43c4.01,2.76,7.4,5.14,9.97,7.33Z"/><path class="cls-1" d="m1333.15,112.6c-4.83-1.81-6.58-6.09-6.99-10.56-.1-2-1.85-5.71-3.49-5.71h-.72c-1.34,0-2.36.95-2.36,2.19.1,1.24.21,2.19.21,2.66l.1,9.99c0,21.03.21,31.97.51,32.64.1.29.62.95,1.44,1.9.72.95,1.13,1.71,1.13,2.38,0,.48-.1.76-.41,1.05-1.23,1.62-2.16,1.52-5.04,1.43h-8.22l-2.67.1c-2.26,0-3.7-.38-4.21-1.24-.31-.47-.51-.95-.51-1.24,0-.67.41-1.33,1.13-2.19.72-.86,1.13-1.33,1.23-1.62.51-.86.72-10.18.72-27.97l-.1-17.98v-.1c0-1.14-1.03-2-2.26-2h-.72c-1.64,0-3.29,3.52-3.6,5.71-.41,4.47-2.26,8.75-6.89,10.56-.1.1-.41.1-.72.1-1.13,0-2.06-.76-1.95-1.9l.82-24.26c0-1.43,1.23-2.57,2.77-2.57h39.77c1.54,0,2.77,1.14,2.88,2.57l.82,24.26c0,1.24-1.44,2.28-2.67,1.81Z"/><path class="cls-1" d="m1416.66,97.66c0,9.42-7.09,19.51-15.31,25.69-4.21,3.33-9.45,6.66-13.87,8.56-.41.19-.62.48-.62.86l.1,6.09c0,1.71,0,2.86.1,3.52,0,.67.1,1.24.41,1.62.1.29.62.95,1.34,1.9.72.95,1.13,1.71,1.13,2.38,0,.38-.1.76-.31,1.05-.82,1.05-1.95,1.52-3.39,1.52-2.26,0-3.8,0-4.62-.1-.51,0-1.23,0-2.06-.09-.82,0-1.85,0-3.19.09l-2.67.1c-2.26,0-3.7-.38-4.32-1.24-.31-.29-.41-.76-.41-1.24,0-.67.31-1.33,1.03-2.09.72-.76,1.13-1.33,1.34-1.71.51-.86.72-11.32.72-31.21l-.1-17.89c-.1-.76-.51-1.43-1.03-2.09-.62-.67-1.03-1.14-1.34-1.52-1.64-2.19-2.88-5.04-2.88-7.61v-.38c0-.38.31-.67.62-.57.72.09,1.44.29,1.95.38.51.09,1.03.19,1.44.29,3.29.76,5.55,1.14,9.25,1.05l6.37-.38c4.01-.29,7.6-.48,10.79-.48l3.29.1c1.95,0,4.01.29,6.06.95l.72.29c4.83,1.24,8.43,4.47,9.25,9.04v.47c.1,1.14.2,2,.2,2.66Zm-29.8,18.74c0,.67.41,1.05.92,1.05.82,0,6.27-3.33,8.22-5.14,3.29-2.95,6.37-8.09,6.37-10.85,0-1.81-1.23-3.23-2.88-3.9-1.64-.67-3.6-.95-5.96-.95-1.34,0-2.26,0-2.88.1l-2.98.1c-.51,0-.92.47-.92.95,0,9.13,0,15.32.1,18.65Z"/><path class="cls-1" d="m1440.6,112.98c0,7.14.1,14.08.21,20.65.1,6.56.31,10.09.41,10.37.1.29.61.95,1.34,1.9.72,1.05,1.13,1.81,1.13,2.47,0,.38-.1.76-.31,1.05-.82.95-2.06,1.43-3.6,1.43h-9.66c-2.06,0-5.75.38-6.89-1.24-.31-.48-.51-.86-.51-1.24,0-.67.41-1.33,1.13-2.19.72-.76,1.13-1.24,1.23-1.52.41-.76.62-11.32.62-31.59v-14.46c0-2.76-.41-4.95-1.13-6.56-.31-.67-.92-2-2.06-3.81-.31-.67-.51-1.24-.51-1.71,0-1.05.51-1.71,1.44-2.09.51,0,1.34.1,2.26.19,1.54.09,3.7.29,6.68.29,2.06-.1,5.14-.19,9.25-.48,1.23-.09,2.47.86,2.47,2,0,.57-.1,1.14-.41,1.71-.21.38-.62.95-1.13,1.71-.72,1.24-1.13,1.9-1.23,2.09-.51.95-.72,7.99-.72,21.03Z"/><path class="cls-1" d="m1496.91,93.09c-2.26,4.47-5.14,9.7-8.63,15.7l-11.1,19.7-4.93,8.56c-.1.29-.21.47-.21.57,0,.67.62,1.33,1.44,1.33h5.03c3.19,0,5.24-2.66,4.73-5.42-.1-.29-.21-.76-.31-1.43-.1-.57-.21-1.05-.21-1.33-.1-3.14.21-5.52,1.13-7.14,1.34-2.57,3.49-5.04,6.47-7.33,1.13-.86,2.98-2,4.21-2,.82,0,1.34.38,1.64,1.14l.21.95c.1.57,0,1.62-.1,3.04-.1,1.24-.2,2.09-.2,2.57v3.81c-.1,5.33-.21,10.09-.21,14.27,0,2.76,0,4.28.1,4.57.1,1.14.21,2.09.21,2.86s-.1,1.33-.21,1.71c-.1.29-.21.47-.51.76-.92.86-2.06.86-4.11.76h-33.3l-2.57.1c-2.26,0-3.7-.38-4.32-1.24-.31-.29-.41-.76-.41-1.33,0-.76.31-1.52.82-2.19.51-.67.72-1.14.82-1.24l13.56-23.41c5.65-9.9,10.17-17.7,13.56-23.41.1-.1.1-.29.1-.48,0-.67-.51-1.24-1.23-1.33-1.34,0-2.16,0-2.57-.09h-.72c-4.83,0-8.12-.1-10.38,3.52-.72,1.14-1.44,2.66-2.06,4.47-1.23,3.33-1.95,4.85-3.91,6.37-1.23,1.05-3.39,1.71-5.14,1.71-1.54,0-2.57-.57-2.57-1.62,0-.38.21-.95.72-1.62.51-.67.72-1.24.82-1.52.82-2,.92-3.33.92-5.61v-3.71c0-1.24,0-2.19-.1-2.76,0-2-.1-3.71-.21-5.23-.21-1.52-.31-2.47-.31-2.76,0-.67.1-1.24.31-1.81.1-.29.31-.57.51-.76.82-.86,2.06-.86,4.11-.76l12.74.29h21.99l2.67-.1c2.16,0,3.6.38,4.21,1.24.51.67-.41,3.14-2.57,7.61Z"/><path class="cls-1" d="m1551.79,93.09c-2.26,4.47-5.14,9.7-8.63,15.7l-11.1,19.7-4.93,8.56c-.1.29-.21.47-.21.57,0,.67.62,1.33,1.44,1.33h5.03c3.19,0,5.24-2.66,4.73-5.42-.1-.29-.21-.76-.31-1.43-.1-.57-.21-1.05-.21-1.33-.1-3.14.21-5.52,1.13-7.14,1.34-2.57,3.49-5.04,6.47-7.33,1.13-.86,2.98-2,4.21-2,.82,0,1.34.38,1.64,1.14l.21.95c.1.57,0,1.62-.1,3.04-.1,1.24-.2,2.09-.2,2.57v3.81c-.1,5.33-.21,10.09-.21,14.27,0,2.76,0,4.28.1,4.57.1,1.14.21,2.09.21,2.86s-.1,1.33-.21,1.71c-.1.29-.21.47-.51.76-.92.86-2.06.86-4.11.76h-33.3l-2.57.1c-2.26,0-3.7-.38-4.32-1.24-.31-.29-.41-.76-.41-1.33,0-.76.31-1.52.82-2.19.51-.67.72-1.14.82-1.24l13.56-23.41c5.65-9.9,10.17-17.7,13.56-23.41.1-.1.1-.29.1-.48,0-.67-.51-1.24-1.23-1.33-1.34,0-2.16,0-2.57-.09h-.72c-4.83,0-8.12-.1-10.38,3.52-.72,1.14-1.44,2.66-2.06,4.47-1.23,3.33-1.95,4.85-3.91,6.37-1.23,1.05-3.39,1.71-5.14,1.71-1.54,0-2.57-.57-2.57-1.62,0-.38.21-.95.72-1.62.51-.67.72-1.24.82-1.52.82-2,.92-3.33.92-5.61v-3.71c0-1.24,0-2.19-.1-2.76,0-2-.1-3.71-.21-5.23-.21-1.52-.31-2.47-.31-2.76,0-.67.1-1.24.31-1.81.1-.29.31-.57.51-.76.82-.86,2.06-.86,4.11-.76l12.74.29h21.99l2.67-.1c2.16,0,3.6.38,4.21,1.24.51.67-.41,3.14-2.57,7.61Z"/><path class="cls-1" d="m1614.91,149.04c-.1.67-1.03,1.05-1.85,1.14-1.13.29-2.36.38-3.7.38-1.64.1-4.11.1-7.5.1l-3.19.09c-2.57,0-4.11-.38-4.42-1.14-.1-.38-.21-.67-.21-.95,0-.67.31-1.43.82-2.28.41-.76.62-1.81.62-3.23,0-1.05-.1-2.57-.41-4.57l-.1-1.24c-.1-1.05-1.23-1.62-2.16-1.33l-11.72,3.04c-1.34.38-2.16,1.33-2.47,2.76l-.21,2.19c0,1.14.1,1.9.41,2.28.51.76.72,1.43.72,2.09,0,1.43-1.03,2.09-3.08,2.19-.51.1-2.26.1-5.24.1l-5.45.09-2.36.1c-3.18,0-4.73-.67-4.73-1.9,0-.67.51-1.52,1.54-2.57.92-1.05,1.54-1.71,1.64-2,1.64-2.66,2.06-4.95,2.77-9.61.1-.67.21-1.9.51-3.71.2-1.05.41-2.67.72-4.85.72-4.38,1.23-7.8,1.75-10.18l1.23-5.8c.92-4.47,1.44-7.52,1.75-9.32.1-.67.21-1.71.51-3.14l.31-2.09v-.19c0-.57-.31-1.05-.82-1.33-1.34-.95-2.26-1.62-2.57-1.9-2.16-1.62-3.7-5.14-3.7-7.8v-.38c0-.38.31-.67.61-.57.72.1,1.34.29,1.85.38.51.1,1.03.19,1.44.29,3.8.86,5.96,1.24,9.76,1.14,1.34-.1,3.7-.29,6.99-.57,2.57-.29,4.93-.47,7.09-.47,7.3,0,11.51,1.14,15.11,5.61.31.38.82,1.24,1.44,2.47.1.1.1.29.1.57,0,.48-.31,1.05-.72.95-.51-.29-1.54-.38-2.88-.38s-1.95.38-1.85,1.05l.72,4c.72,3.43,1.13,6.28,1.44,8.66.2,1.81.61,4.66,1.34,8.56.51,2.76.92,4.85,1.13,6.28l.72,4.76c.93,7.23,1.44,10.85,2.98,16.08.31,1.14.61,1.9.92,2.38.31.47.92,1.05,1.75,1.81.51.48.72,1.33.62,2Zm-21.89-27.12l-1.64-12.27c-1.03-7.9-1.54-11.99-1.64-12.18-.21-.67-.62-.95-1.34-.95h-2.06c-.92.09-1.34.47-1.44,1.05-.21.48-1.54,9.51-3.91,27.12v.1c0,.86.93,1.43,1.85,1.33l8.84-2.38c.82-.29,1.44-1.05,1.34-1.81Z"/><path class="cls-1" d="m1699.86,87c0,.38-.1.76-.31,1.14-.31.38-.92,1.05-1.85,1.9-.93.86-1.54,1.81-1.85,2.76-.51,1.24-.92,2.66-1.23,4.19l-.82,2.66-2.78,9.33-3.39,11.32-4.93,16.75c-.21.47-.41,1.05-.51,1.52-.1.57-.31,1.14-.51,1.62-.51,1.33-.72,2.28-.72,2.86.1.48.41,1.24,1.13,2.09.1.19.41.57.93,1.14.41.57.61,1.14.61,1.71,0,.48-.1.86-.41,1.14-1.23,1.52-2.26,1.52-5.14,1.43h-8.53l-2.88.1c-2.36,0-3.8-.38-4.42-1.24-.31-.29-.41-.67-.41-1.14,0-.57.31-1.24.82-2,.1-.19.41-.57.93-1.05.51-.48.72-.95.72-1.43,0-.38-.1-.86-.31-1.52-.21-.57-.31-1.05-.41-1.43l-2.26-7.9c-.62-2.38-1.64-5.9-2.98-10.56l-3.08-11.32c-1.23-4.47-2.16-7.8-2.88-9.99l-.82-3.04c-.2-.86-.51-1.81-.82-2.95-.1-.76-.31-1.33-.61-1.81-.21-.29-.41-.47-.62-.76-.31-.19-.51-.38-.72-.67-1.64-2.19-2.88-5.04-2.88-7.61v-.38c0-.38.31-.67.62-.57.72.09,1.34.29,1.85.38.51.09.93.19,1.23.29,3.18.67,5.86,1.05,8.22,1.05,1.23,0,2.67-.1,4.21-.19,1.54-.1,2.77-.1,3.49-.1.93-.09,1.75-.19,2.26-.19h.2c.93.38,1.34,1.05,1.34,2.09,0,.47-.21.95-.51,1.62-.1.19-.61.95-1.54,2.38-.93,1.43-1.34,2.66-1.34,3.71.1,1.43.31,3.04.82,4.66.82,2.57,1.95,6.37,3.29,11.61l2.16,7.61c.1.29.21.38.51.38s.41-.09.51-.38l7.19-24.17c0-.19.1-.48.21-.95.1-.48.1-.76,0-1.05-.1-.48-.72-1.33-1.03-1.62l-1.34-2.19c-.31-.48-.41-1.05-.41-1.62,0-1.05.41-1.71,1.34-2.09l.21-.1c1.23.1,5.24.48,7.81.48,2.16,0,5.65-.19,7.19-.29l2.57-.19c1.64-.09,2.88,1.05,2.88,2.57Z"/><path class="cls-1" d="m1757.6,149.04c-.1.67-1.03,1.05-1.85,1.14-1.13.29-2.36.38-3.7.38-1.64.1-4.11.1-7.5.1l-3.18.09c-2.57,0-4.11-.38-4.42-1.14-.1-.38-.21-.67-.21-.95,0-.67.31-1.43.82-2.28.41-.76.62-1.81.62-3.23,0-1.05-.1-2.57-.41-4.57l-.1-1.24c-.1-1.05-1.23-1.62-2.16-1.33l-11.72,3.04c-1.34.38-2.16,1.33-2.47,2.76l-.21,2.19c0,1.14.1,1.9.41,2.28.51.76.72,1.43.72,2.09,0,1.43-1.03,2.09-3.08,2.19-.51.1-2.26.1-5.24.1l-5.45.09-2.36.1c-3.19,0-4.73-.67-4.73-1.9,0-.67.51-1.52,1.54-2.57.93-1.05,1.54-1.71,1.64-2,1.64-2.66,2.06-4.95,2.78-9.61.1-.67.21-1.9.51-3.71.21-1.05.41-2.67.72-4.85.72-4.38,1.23-7.8,1.75-10.18l1.23-5.8c.93-4.47,1.44-7.52,1.75-9.32.1-.67.21-1.71.51-3.14l.31-2.09v-.19c0-.57-.31-1.05-.82-1.33-1.34-.95-2.26-1.62-2.57-1.9-2.16-1.62-3.7-5.14-3.7-7.8v-.38c0-.38.31-.67.62-.57.72.1,1.34.29,1.85.38.51.1,1.03.19,1.44.29,3.8.86,5.96,1.24,9.76,1.14,1.34-.1,3.7-.29,6.99-.57,2.57-.29,4.93-.47,7.09-.47,7.3,0,11.51,1.14,15.11,5.61.31.38.82,1.24,1.44,2.47.1.1.1.29.1.57,0,.48-.31,1.05-.72.95-.51-.29-1.54-.38-2.88-.38s-1.95.38-1.85,1.05l.72,4c.72,3.43,1.13,6.28,1.44,8.66.21,1.81.62,4.66,1.34,8.56.51,2.76.93,4.85,1.13,6.28l.72,4.76c.92,7.23,1.44,10.85,2.98,16.08.31,1.14.62,1.9.93,2.38.31.47.93,1.05,1.75,1.81.51.48.72,1.33.61,2Zm-21.89-27.12l-1.64-12.27c-1.03-7.9-1.54-11.99-1.64-12.18-.21-.67-.62-.95-1.34-.95h-2.06c-.93.09-1.34.47-1.44,1.05-.2.48-1.54,9.51-3.9,27.12v.1c0,.86.92,1.43,1.85,1.33l8.84-2.38c.82-.29,1.44-1.05,1.34-1.81Z"/><path class="cls-1" d="m1807.1,119.07c-.1,1.24-.2,2.19-.2,2.66v3.71c-.1,5.42-.21,10.37-.21,14.84,0,2.76,0,4.38.1,4.66.21,1.52.31,2.38.31,2.67,0,.67-.1,1.33-.31,1.9-.1.29-.21.48-.51.76-.92.86-2.06.86-4.11.76-.92-.09-2.16-.09-3.49-.09s-2.67,0-4.01-.1l-5.34-.1h-16.44l-2.67.1c-2.26,0-3.7-.38-4.32-1.24-.31-.29-.41-.76-.41-1.24,0-.67.31-1.33,1.03-2.09.72-.76,1.13-1.33,1.34-1.71.51-.86.72-11.32.72-31.21l-.1-17.98c-.1-.76-.51-1.43-1.03-2.09-.62-.57-1.03-1.05-1.34-1.43-1.75-2.28-2.88-5.23-2.88-7.61v-.38c0-.38.31-.67.62-.57.72.09,1.44.29,2.06.38.51.09,1.03.19,1.54.29,2.88.67,5.45,1.05,7.81,1.05,1.75,0,4.11-.1,7.09-.38l2.88-.19c.92.38,1.44,1.24,1.44,2.09,0,.48-.21,1.05-.51,1.71-.2.38-.61.95-1.13,1.71-.72,1.24-1.13,1.9-1.23,2.09-.51,1.24-.82,2.57-.82,4.19,0,.76.1,1.81.21,3.24.1.86.21,1.52.21,1.9l.1,12.27c0,7.71.1,15.79.2,24.17,0,.47.51.95,1.03.95h4.42c3.18,0,5.34-2.66,4.83-5.42-.31-1.14-.51-2.09-.51-2.76l-.1-1.62c0-2.19.41-4.09,1.23-5.61,1.34-2.66,3.49-5.14,6.47-7.42,1.85-1.33,3.29-2,4.32-2,.72,0,1.23.38,1.54,1.14.1.19.2.38.2.47,0,.19,0,.38.1.48.1.57,0,1.62-.1,3.04Z"/><path class="cls-1" d="m1864.94,86.72c0,.47-.21,1.05-.51,1.71-.21.38-.62.95-1.13,1.71-.72,1.24-1.13,1.9-1.23,2.09-.62,1.43-.92,3.14-.92,5.14l.1,2.28c.1.48.1,1.24.1,2.19.1.29.1.86.1,1.62v10.56l.1,10.66c0,7.14-.1,14.18-.21,21.31,0,2.38-2.06,4.47-4.83,4.47-.41,0-1.34,0-2.67.1s-2.88.19-4.42.19c-11.1,0-22.4-2.57-29.49-11.04-3.91-4.66-5.86-11.13-5.86-19.41,0-4.47.51-9.32,1.54-14.65.31-1.52.92-4.57,1.95-9.13.1-.48.2-.95.2-1.24,0-1.05-.41-2-1.13-3.04v-.09c-1.64-2.19-2.88-5.04-2.88-7.61v-.38c0-.38.31-.67.62-.57.72.1,1.44.29,2.06.38.51.09,1.03.19,1.54.29,2.88.67,5.45,1.05,7.81,1.05,2.16,0,4.21-.1,6.17-.29,1.64-.1,2.88-.19,3.8-.19.92.38,1.44,1.05,1.44,2.09,0,.48-.21,1.05-.51,1.71-1.54,2.85-3.49,5.8-4.52,9.13-.72,2.19-1.44,5.52-2.26,10.09-.93,4.95-1.34,8.94-1.34,11.99,0,5.42,1.03,9.32,3.08,11.89,2.88,3.71,5.45,5.04,11.1,5.14,2.06,0,3.8-1.52,3.8-3.43l.1-13.42-.1-21.03c-.1-3.14-.31-4.85-1.13-6.66-.31-.57-.62-1.24-1.03-2-.51-.67-.82-1.33-1.13-1.81-.31-.67-.51-1.24-.51-1.71,0-1.05.51-1.71,1.44-2.09.51,0,1.34.1,2.26.19,1.54.1,3.7.29,6.68.29,1.95-.1,5.04-.19,9.35-.48,1.23-.09,2.47.86,2.47,2Z"/><path class="cls-1" d="m1919.56,139.52c0,5.42-.92,8.75-5.45,10.28-1.95.67-4.32,1.05-7.09,1.05l-5.96-.1h-4.01c-5.24,0-9.25-.09-11.92-.19h-3.29c-.72.1-1.75.1-3.08.1-2.36,0-3.8-.38-4.42-1.24-.31-.29-.41-.67-.41-1.14,0-.57.41-1.24,1.13-2.09.72-.86,1.13-1.43,1.23-1.71.41-1.14.61-11.61.61-31.49v-17.32c-.1-.76-.51-1.43-1.03-2.09-.62-.57-1.13-1.05-1.44-1.43-1.64-2.19-2.77-5.23-2.77-7.61v-.29c0-.38.31-.67.62-.57.72.09,1.44.29,1.95.38.51.1,1.03.19,1.44.29,3.29.76,5.55,1.14,9.25,1.05,7.3-.38,12.54-.76,15.93-1.14,1.13-.1,4.32-.48,6.47-.48,2.57,0,4.73.38,6.58,1.05,4.52,1.52,5.65,5.52,5.65,10.85,0,5.04-.92,7.61-2.78,7.61-.41,0-.72-.1-1.03-.19-.51-.19-.93-.57-1.23-1.05-.41-.47-.72-.86-.82-.95-2.36-2.95-5.04-4.19-9.25-4.66-1.54-.19-2.98-.29-4.52-.29-1.64,0-4.01.09-7.19.38-.72.09-1.03.47-1.03,1.05l.1,12.27c0,.76,1.03,1.33,1.75.95l4.42-1.9,4.73-2c1.23-.29,1.95.86,2.26,3.43.21,2.19-.1,4.19-1.03,5.99-1.75,3.14-4.93,4.85-9.56,6.37-1.34.38-2.26,1.52-2.26,2.76,0,6.76.1,10.66.21,11.8,0,.86.61,1.52,1.54,1.52,3.29.19,5.55.29,6.78.29,1.13,0,2.47-.1,3.8-.19,4.21-.47,6.89-1.71,9.25-4.66.31-.38,1.13-1.62,2.06-2l.92-.19c1.95,0,2.88,2.47,2.88,7.52Z"/><path class="cls-1" d="m1132.71,286.63c-.18,1.16-1.75,1.89-3.15,2.12-1.92.58-4.02.85-6.29.95-2.8.3-6.99.5-12.76.78-1.81.14-3.61.29-5.42.44-4.37.22-6.99-.31-7.51-1.62-.17-.66-.35-1.15-.35-1.65,0-1.17.53-2.53,1.4-4.08.7-1.37,1.05-3.22,1.05-5.73,0-1.84-.17-4.5-.7-7.99-.06-.72-.12-1.44-.17-2.16-.17-1.83-2.1-2.75-3.67-2.19-6.64,2.05-13.28,4.13-19.92,6.24-2.27.78-3.67,2.53-4.19,5.1-.12,1.3-.23,2.61-.35,3.91,0,2.03.17,3.37.7,4.02.87,1.31,1.22,2.47,1.22,3.66,0,2.54-1.75,3.81-5.24,4.18-.87.22-3.84.38-8.91.68-3.09.23-6.17.47-9.26.71-1.34.14-2.68.27-4.02.41-5.41.33-8.03-.71-8.03-2.95,0-1.2.87-2.8,2.62-4.79,1.57-1.98,2.62-3.23,2.8-3.76,2.79-4.95,3.49-9.09,4.72-17.53.18-1.21.35-3.44.87-6.71.35-1.89.7-4.82,1.22-8.77,1.22-7.91,2.1-14.08,2.97-18.37.7-3.49,1.4-6.98,2.1-10.46,1.57-8.05,2.45-13.51,2.97-16.75.17-1.19.35-3.07.87-5.63.18-1.25.35-2.5.53-3.75,0-.11,0-.23,0-.34,0-1.02-.52-1.87-1.4-2.37-2.27-1.68-3.84-2.86-4.37-3.37-3.67-2.87-6.29-9.19-6.29-13.98v-.34c0-.11,0-.23,0-.34,0-.68.52-1.2,1.05-1.03,1.22.17,2.27.51,3.15.68.87.17,1.75.34,2.45.51,6.47,1.53,10.14,2.19,16.61,2.01,2.27-.17,6.29-.52,11.89-1.03,4.37-.51,8.39-.85,12.06-.85,12.41-.01,19.58,1.99,25.69,9.74.52.66,1.4,2.15,2.45,4.29.17.16.17.49.17.99,0,.83-.52,1.82-1.22,1.66-.87-.49-2.62-.64-4.89-.62-2.27.02-3.32.69-3.15,1.85.41,2.32.81,4.64,1.22,6.96,1.22,5.96,1.92,10.92,2.44,15.06.35,3.14,1.05,8.11,2.27,14.87.87,4.78,1.57,8.41,1.92,10.88.41,2.75.81,5.49,1.22,8.24,1.57,12.52,2.44,18.77,5.05,27.75.52,1.96,1.05,3.26,1.57,4.06.52.8,1.57,1.75,2.97,3,.87.78,1.22,2.25,1.05,3.41Zm-37.2-45.9c-.93-7.17-1.86-14.34-2.79-21.52-1.74-13.87-2.61-21.08-2.79-21.41-.35-1.17-1.05-1.67-2.27-1.65-1.17.01-2.33.02-3.5.04-1.57.18-2.27.87-2.45,1.88-.35.85-2.63,16.83-6.66,48.2,0,.06,0,.11,0,.17,0,1.52,1.57,2.48,3.14,2.25,5.01-1.58,10.02-3.14,15.03-4.7,1.4-.55,2.45-1.92,2.27-3.25Z"/><path class="cls-1" d="m1221.69,225.84c.15,31.81.49,47.94,1.02,48.72.17.47,1.05,1.57,2.27,3.13,1.22,1.72,1.92,2.98,1.92,4.09,0,.64-.18,1.28-.7,1.78-1.4,1.64-3.5,2.5-6.12,2.59-3.55.12-7.11.23-10.66.36-1.86.06-3.73.13-5.59.19-3.5.12-9.79.83-11.89-1.67-.52-.79-.87-1.42-.87-2.06,0-1.13.7-2.28,1.92-3.78,1.23-1.49,1.92-2.32,2.1-2.65.52-.98.88-8.08,1.06-21.14,0-3.7-1.22-7.05-3.84-10.06-6.06-6.63-12.11-13.3-18.17-20-.35-.48-.87-.63-1.57-.62-1.22.02-2.1.85-2.1,1.99,0,10.89.16,21.77.33,32.48.17,10.71.34,16.39.51,17.04.17.48,1.05,1.59,2.27,3.16,1.22,1.74,1.92,3.01,1.92,4.15,0,.49-.18,1.14-.52,1.8-1.4,1.67-3.5,2.57-6.29,2.68-3.61.15-7.22.3-10.84.45-1.81.08-3.61.15-5.42.23-3.67.16-9.44.91-11.88-1.61-.52-.47-.7-1.12-.7-1.94,0-1.15.53-2.49,1.75-3.85,1.22-1.37,1.92-2.38,2.27-2.88.87-1.51,1.23-19.56,1.25-53.83-.05-10.33-.1-20.66-.16-30.99-.17-1.31-.87-2.45-1.75-3.6-1.05-1.14-1.75-1.96-2.27-2.61-2.79-3.76-4.89-8.69-4.89-13.13,0-.11,0-.22,0-.33,0-.11,0-.22,0-.33,0-.66.52-1.15,1.05-.99,1.63.33,3.26.66,4.89.98,4.72,1.31,9.44,1.96,13.81,1.95,3.32,0,8.04-.17,13.81-.67,1.28-.06,2.56-.11,3.85-.17,1.57.65,2.45,1.78,2.44,3.57,0,.81-.35,1.78-.88,2.92-.23.43-.47.87-.7,1.3-.7.98-1.05,1.95-1.05,3.09,0,1.46.52,2.92,1.75,4.21,5.88,6.56,11.76,13.08,17.64,19.57.52.48,1.05.79,1.57.79,1.22-.01,2.1-.83,2.1-1.96,0-3.22,0-6.44,0-9.66-.17-5.15-.52-8.05-1.92-11.27-.87-1.93-2.79-4.99-3.67-6.27-.52-1.13-.87-2.1-.87-2.9,0-1.78.88-2.91,2.45-3.55.87,0,2.27.16,3.85.32,2.62.16,6.29.48,11.36.47,3.5-.16,8.74-.33,15.73-.81,2.27-.16,4.37,1.27,4.37,3.35,0,.64-.35,1.6-.88,2.87-.52.8-1.05,1.76-1.92,3.04-.87,1.28-1.57,2.4-2.1,3.36-1.05,2.4-1.58,5.12-1.58,8.48.06,1.28.12,2.56.17,3.84.17.8.17,2.08.17,3.68.17,1.44.17,8.95.16,22.7Z"/><path class="cls-1" d="m1321.94,178.7c0,.63-.17,1.25-.51,1.88,0,.05,0,.1,0,.16-1.36,2.04-2.72,3.91-4.08,5.48-.68.79-1.53,1.88-2.72,3.29-.34.42-.68.84-1.02,1.25-.51.78-1.7,2.82-3.57,6.43-1.19,2.36-2.04,3.93-2.72,5.03-1.53,2.83-6.29,10.84-14.11,24.27-2.04,3.48-3.06,7.26-3.06,11.35.16,22.64.49,34.26.83,34.88.17.47,1.02,1.55,2.21,3.1,1.19,1.55,1.87,2.79,1.87,3.89,0,.63-.17,1.26-.51,1.74-2.04,2.56-3.74,2.59-8.33,2.54-4.53.1-9.06.21-13.59.32-1.47.09-2.94.18-4.42.27-3.74.1-6.12-.47-7.14-1.87-.51-.46-.68-1.25-.68-2.04,0-1.11.51-2.23,1.7-3.52,1.19-1.3,1.87-2.26,2.21-2.9.68-1.28,1.03-13.62,1.04-37.16,0-3.95-.85-7.41-2.71-10.71-.85-1.73-2.21-4.09-3.9-7.07-1.7-2.83-2.88-4.88-3.73-6.29-.62-1-1.24-1.99-1.87-2.99-1.64-3-3.28-6-4.92-9-.68-1.21-1.36-2.42-2.04-3.64-1.19-2.53-2.21-4.27-3.05-5.07-.51-.63-1.36-1.42-2.55-2.21-1.19-1.11-2.21-2.06-3.06-3.01-2.72-3.65-4.75-8.42-4.75-12.73,0-.11,0-.21,0-.32,0-.11,0-.21,0-.32,0-.64.51-1.12,1.02-.96,1.19.16,2.38.48,3.4.64.85.16,1.7.32,2.55.48,4.75,1.11,9,1.74,12.91,1.74,3.57,0,6.79-.17,10.02-.48,2.89-.16,5.1-.32,6.28-.32.11,0,.23,0,.34,0,1.53.63,2.21,1.74,2.21,3.47,0,.79-.34,1.58-.85,2.69-.17.47-.68,1.11-1.19,1.9-.51.79-1.02,1.58-1.36,2.06-.17.16-1.87,2.06-1.36,3.16,1.19,2.37,3.22,5.67,4.07,7.09,1.87,3.41,3.73,6.82,5.6,10.22.34.63.85.94,1.7.93.85,0,1.36-.33,1.7-.96,1.19-2.06,4.42-7.91,10.03-17.52.06-.16.11-.31.17-.47-.06-.1-.11-.21-.17-.31-.85-1.88-2.71-4.87-3.56-6.12-.51-.79-.68-1.73-.68-2.83,0-1.57.68-2.67,2.21-3.31,0-.16.17-.16.34-.16.68,0,1.87.16,3.4.31,2.55.16,6.29.47,11.04.47,3.06-.16,7.98-.32,14.61-.79,2.72-.16,4.75,1.72,4.75,4.06Z"/><path class="cls-1" d="m1462.07,177.26c0,.78-.34,1.71-.85,2.79-.85,1.24-2.55,3.73-3.23,5.12-.51,1.09-1.02,2.95-1.87,5.59-1.02,3.1-2.04,6.21-3.06,9.31-1.64,5.12-3.28,10.24-4.93,15.36-1.93,6.15-3.85,12.31-5.78,18.46-1.36,3.88-3.23,9.77-5.78,17.68-1.42,4.45-2.83,8.89-4.25,13.34-.57,1.76-1.13,3.52-1.7,5.27.06.52.11,1.03.17,1.55.17.46,1.02,1.55,2.38,3.11,1.19,1.55,1.87,2.8,1.87,3.88,0,.77-.17,1.24-.68,1.71-1.36,1.86-3.06,2.32-5.61,2.32-3.63,0-7.25,0-10.88,0-1.81,0-3.62,0-5.44,0-1.47.05-2.95.11-4.42.17-3.74,0-6.12-.6-6.97-2-.51-.77-.85-1.39-.85-2.01,0-1.09.68-2.49,2.04-3.89.51-.47,1.7-1.56,1.87-2.33.17-.47.34-1.09.34-1.86,0-.62-.17-1.4-.34-2.48-1.36-4.34-2.38-7.6-2.89-9.77-2.55-7.91-4.42-14.73-5.94-20.32-1.19,3.88-2.72,8.24-4.25,13.37-.85,2.49-1.7,4.98-2.55,7.46-.17.93-.85,2.96-1.87,5.91-.57,1.76-1.13,3.53-1.7,5.29.17,1.09.34,1.55.34,1.55.17.46,1.02,1.55,2.21,3.09,1.19,1.55,1.87,2.78,1.87,3.87,0,.62-.17,1.24-.68,1.71-1.36,1.87-3.06,2.35-5.61,2.36-3.57.02-7.14.05-10.71.08-1.81.02-3.63.03-5.44.05-1.53.07-3.06.13-4.59.2-3.74.04-6.12-.56-6.97-1.95-.51-.46-.68-1.08-.68-1.86,0-.78.68-2.19,1.87-4.07.51-.47,1.7-1.58,1.87-2.35.17-.47.34-1.09.34-1.87,0-.62-.17-1.4-.34-2.49-.96-3.26-1.92-6.52-2.89-9.78-1.53-5.12-3.06-10.25-4.58-15.38-1.7-5.96-3.39-11.92-5.09-17.88-2.21-7.47-3.9-13.07-4.92-16.81-.85-2.8-2.21-7.01-3.73-12.62-.51-1.66-1.02-3.32-1.53-4.99-.17-.78-.85-1.71-1.7-2.65-.85-.78-1.7-1.56-2.21-2.34-2.72-3.59-4.75-8.27-4.75-12.49,0-.1,0-.21,0-.31s0-.21,0-.31c0-.62.51-1.09,1.02-.94,1.19.16,2.38.47,3.4.63.85.16,1.7.31,2.55.47,4.76,1.09,9,1.71,12.91,1.71,2.55,0,7.98-.31,16.48-.78,1.53.62,2.38,1.71,2.38,3.27,0,.78-.34,1.71-.85,2.8-.34.62-1.02,1.56-1.87,2.8-1.19,2.02-1.87,3.11-2.04,3.43-.51,1.4-.85,2.49-.85,3.27,0,.78.34,2.33,1.02,4.67,1.36,5.44,2.71,10.88,4.07,16.32,1.98,7.77,3.96,15.54,5.94,23.3.17.62.51.93.85.93.51,0,.85-.32,1.02-.94,3.17-10.84,6.35-21.68,9.52-32.51.17-1.24.34-2.17.34-2.8,0-2.02-.34-3.73-1.19-5.12-.34-.62-.85-1.4-1.36-2.48-.68-.93-1.19-1.86-1.7-2.64-.51-1.09-.85-1.86-.85-2.64,0-1.87,2.04-3.42,4.25-3.42,6.62,0,11.72,0,15.29.15,3.57.15,6.96,2.48,7.81,5.74,3.91,15.21,7.81,30.41,11.72,45.61.17.62.51.93.85.93.51,0,.85-.47,1.02-.93.62-2.17,1.25-4.34,1.87-6.52,1.19-4.19,2.89-9.78,4.93-16.76,2.04-6.98,3.74-12.57,5.1-17.07.17-.62.34-1.55.34-2.64,0-1.55-.34-3.1-1.19-4.5-.51-.93-1.02-2.02-1.7-3.26-.85-1.09-1.36-2.17-1.87-2.95-.51-1.09-.85-2.02-.85-2.79,0-1.71.85-2.79,2.38-3.41,2.21.16,8.66.77,13.25.78,3.91,0,9.85-.31,12.57-.46,2.04-.15,3.4-.31,4.25-.31,2.21-.15,4.25,1.4,4.25,3.26Z"/><path class="cls-1" d="m1549.82,272.85c.17.47,1.02,1.59,2.21,3.18,1.19,1.59,1.87,2.86,1.87,3.96,0,.63-.17,1.25-.51,1.72-1.36,1.54-3.23,2.29-5.61,2.24-3.62-.07-7.25-.14-10.87-.21-1.81-.03-3.63-.06-5.44-.1-1.47.03-2.95.05-4.42.08-3.74-.06-6.12-.72-7.14-2.14-.51-.47-.68-1.26-.68-2.04,0-1.09.51-2.18,1.7-3.41,1.19-1.23,1.87-2.16,2.21-2.78.68-1.08,1.02-12.17,1.01-32.95,0-1.25-1.19-2.2-2.55-1.74-6.4,1.82-12.8,3.63-19.2,5.45-.85.3-1.36.92-1.36,1.7.18,16.98.52,25.86.69,26.33.17.47,1.02,1.57,2.21,3.14,1.19,1.57,1.87,2.83,1.87,3.92,0,.62-.17,1.25-.51,1.71-1.36,1.54-3.23,2.3-5.61,2.27-3.63-.04-7.25-.08-10.88-.12-1.81-.02-3.62-.04-5.44-.05-1.47.04-2.95.08-4.42.12-3.74-.03-6.12-.67-7.14-2.08-.51-.47-.68-1.25-.68-2.03,0-1.09.51-2.17,1.7-3.41,1.19-1.23,1.87-2.16,2.21-2.78.85-1.39,1.19-18.49,1.18-50.97-.06-9.74-.12-19.48-.18-29.22-.17-1.24-.85-2.33-1.7-3.42-1.02-1.09-1.7-1.87-2.21-2.49-2.72-3.58-4.76-8.24-4.76-12.43,0-.1,0-.21,0-.31v-.31c0-.62.51-1.09,1.02-.93,1.19.15,2.38.47,3.23.62.85.16,1.7.31,2.38.47,5.44,1.24,9.17,1.87,15.29,1.71,2.83-.15,5.66-.31,8.49-.46.51,0,1.19-.16,2.04-.31.68-.16,1.36-.16,2.21-.16,2.04,0,3.23.62,3.74,2.03.17.31.17.78.17,1.4,0,1.09-.17,2.03-.68,2.81-.85,1.4-1.87,3.58-3.22,6.54-1.19,2.33-1.7,5.29-1.7,8.87,0,1.4.17,3.43.34,6.08.06,5.82.12,11.63.17,17.45,0,1.25,1.19,2.19,2.55,1.73,6.45-1.83,12.91-3.67,19.36-5.5.85-.31,1.36-.93,1.36-1.87,0-5.47,0-10.94,0-16.4,0-4.53-.68-8.13-1.87-10.78-.68-1.41-1.87-3.44-3.57-6.25-.51-.78-.68-1.56-.68-2.66,0-1.4.51-2.5,1.7-3.28.51-.16,1.19-.31,2.04-.31.85,0,1.87,0,2.72.16.85.16,1.53.31,2.38.31,2.72.16,4.76.32,5.94.32,4.08,0,10.53-.31,13.42-.46,2.04-.16,3.4-.31,4.25-.31,2.04-.16,4.08,1.41,4.08,3.3,0,1.1-.17,2.04-.68,2.82-.51.78-1.02,1.73-1.87,2.98-.85,1.25-1.53,2.35-2.04,3.29-1.19,2.51-1.7,5.33-1.7,8.31,0,1.1.17,2.51.34,3.92.17,1.57.17,2.67.17,3.45.06,5.18.12,10.35.18,15.53.02,35.29.36,53.65.88,54.76Z"/><path class="cls-1" d="m1638.92,267.52c0,9.14-1.52,14.7-8.99,17.01-3.23,1.01-7.13,1.52-11.72,1.38-3.28-.16-6.57-.31-9.85-.46-2.21-.07-4.42-.13-6.63-.19-8.66-.25-15.29-.58-19.71-.85-1.76-.04-3.51-.09-5.27-.13-.06,0-.11,0-.17,0-1.19.13-2.89.09-5.1.03-3.91-.09-6.28-.77-7.31-2.21-.51-.48-.68-1.12-.68-1.9,0-.94.68-2.03,1.87-3.42,1.19-1.39,1.87-2.32,2.04-2.79.68-1.87,1.01-19.19.99-52.09,0-9.55-.01-19.1-.02-28.66-.17-1.26-.85-2.36-1.7-3.47-1.02-.95-1.87-1.74-2.38-2.37-2.72-3.63-4.59-8.66-4.59-12.59,0-.05,0-.1,0-.16,0-.1,0-.21,0-.31,0-.63.51-1.1,1.02-.94,1.19.16,2.38.47,3.23.63.85.16,1.7.32,2.38.47,5.44,1.26,9.17,1.9,15.29,1.74,12.06-.62,20.72-1.25,26.33-1.88,1.87-.16,7.13-.79,10.7-.79,4.25,0,7.81.64,10.87,1.76,7.48,2.56,9.35,9.31,9.35,18.29,0,8.5-1.52,12.81-4.58,12.78-.68,0-1.19-.17-1.7-.34-.85-.33-1.53-.97-2.04-1.78-.68-.8-1.19-1.45-1.36-1.61-3.91-4.99-8.33-7.09-15.29-7.93-2.55-.33-4.93-.51-7.47-.52-2.72-.02-6.63.12-11.89.57-1.19.15-1.7.78-1.7,1.73.06,6.81.12,13.62.18,20.42,0,1.27,1.7,2.24,2.89,1.62,2.43-1.03,4.87-2.06,7.3-3.09,2.6-1.08,5.21-2.17,7.81-3.25,2.04-.45,3.23,1.47,3.74,5.77.34,3.67-.17,7-1.69,10-2.89,5.21-8.15,7.98-15.79,10.39-2.21.6-3.73,2.47-3.73,4.53,0,11.24.18,17.74.35,19.64,0,1.43,1.02,2.56,2.55,2.59,5.44.44,9.17.69,11.21.74,1.87.05,4.08-.06,6.29-.16,6.96-.62,11.38-2.57,15.28-7.43.51-.63,1.87-2.67,3.39-3.27.51-.09,1.02-.19,1.53-.28,3.23.08,4.76,4.29,4.76,12.78Z"/><path class="cls-1" d="m1728.32,287.43c-.88,1.78-2.98,2.5-6.67,2.33-4.22-.2-7.38-.34-9.31-.59-2.11-.1-3.69-.17-4.92-.22-1.58-.23-4.92-.38-9.84-.59-2.63.05-5.45-1.54-5.45-4.31,0-.98.53-2.1,1.4-3.37.88-1.11,1.4-2.07,1.4-2.89,0-2.78-2.11-7.1-2.82-8.59-.53-1.54-1.06-3.08-1.58-4.62-.88-2.64-1.41-4.28-1.76-5.11-.18-.82-.7-1.98-1.41-3.46-.7-1.49-1.93-2.34-3.51-2.38-.53-.01-1.23.13-1.76.44-1.17.51-2.34,1.02-3.51,1.52-.7.3-1.05.78-1.05,1.59.06,3.46.12,6.93.18,10.39,0,2.92,0,4.87.18,6.01,0,1.14.18,1.95.7,2.62.18.49,1.06,1.66,2.29,3.33,1.23,1.67,1.93,3,1.94,4.14,0,.65-.17,1.29-.53,1.77-2.11,2.52-3.86,2.44-8.61,2.1-4.68-.18-9.37-.36-14.05-.53-1.52,0-3.05,0-4.57,0-3.87-.14-6.32-.87-7.38-2.35-.53-.5-.7-1.31-.7-2.11,0-1.13.53-2.23,1.75-3.48,1.23-1.25,1.93-2.19,2.28-2.82.88-1.42,1.22-19.12,1.19-52.76-.07-10.09-.13-20.18-.2-30.26-.18-1.29-.88-2.42-1.76-3.55-1.05-1.13-1.76-1.94-2.29-2.59-2.81-3.71-4.93-8.53-4.93-12.86,0-.11,0-.21,0-.32,0-.11,0-.21,0-.32,0-.64.53-1.12,1.05-.96,1.06.16,1.93.48,2.81.64.88.16,1.58.32,2.46.48,6.33,1.45,9.84,1.94,16.34,1.79,3.63-.21,7.26-.42,10.89-.64,6.85-.48,13-.8,18.45-.8,1.87.06,3.75.11,5.62.17,4.04.17,7.38.82,10.37,1.65.41.16.82.33,1.23.49,8.26,2.15,14.41,7.79,15.82,15.74,0,.28,0,.55,0,.83.18,1.99.35,3.48.36,4.63,0,13.91-8.77,28.16-20.18,39.03-.88.8-1.4,1.93-1.4,3.08,0,.66,0,1.15.18,1.48,2.58,6.9,5.16,13.83,7.74,20.77.35,1,.88,2.17,1.41,3.34.53,1.34,1.06,2.34,1.23,2.84.53,1.23,1.06,2.46,1.58,3.69,1.76,3.86,3.34,6.57,4.75,8.28,2.11,2.07,5.62,4.71,4.57,7.31Zm-49.22-56.51c1.41.03,10.54-5.31,14.05-8.52,5.79-5.11,10.88-13.89,10.88-18.31,0-3.12-1.94-5.76-4.92-6.93-2.81-1.17-6.15-1.69-10.19-1.72-2.28-.02-3.86-.03-4.92.12-1.7.04-3.4.08-5.09.12-.88,0-1.58.8-1.58,1.61,0,15.58.02,26.29.2,31.98,0,.81.7,1.64,1.58,1.66Z"/><path class="cls-1" d="m1813.98,274.43c0,9.8-1.58,15.73-9.3,18.02-3.34,1-7.37,1.45-12.11,1.17-3.39-.25-6.79-.5-10.18-.75-2.28-.13-4.56-.25-6.85-.38-8.95-.49-15.8-1.02-20.37-1.42-1.81-.09-3.63-.19-5.44-.28-.06,0-.12,0-.17,0-1.23.1-2.99.02-5.27-.1-4.04-.2-6.5-.98-7.55-2.53-.53-.52-.7-1.19-.7-2.02,0-1,.7-2.12,1.93-3.56,1.23-1.44,1.93-2.41,2.11-2.9.7-1.96,1.04-20.24,1.03-55,0-10.09,0-20.18-.01-30.27-.18-1.33-.88-2.5-1.76-3.67-1.05-1-1.93-1.84-2.46-2.51-2.81-3.84-4.75-9.14-4.75-13.29v-.17c0-.11,0-.22,0-.33,0-.66.53-1.16,1.05-.99,1.23.17,2.46.5,3.34.67.88.17,1.76.33,2.46.5,5.62,1.34,9.49,2.01,15.81,1.86,12.47-.64,21.43-1.31,27.23-1.98,1.93-.17,7.38-.84,11.07-.84,4.39,0,8.08.69,11.24,1.89,7.73,2.75,9.66,9.99,9.66,19.61,0,9.11-1.58,13.73-4.74,13.67-.7-.01-1.23-.19-1.76-.37-.88-.36-1.58-1.05-2.11-1.92-.7-.87-1.23-1.56-1.41-1.73-4.04-5.37-8.61-7.63-15.81-8.56-2.64-.37-5.09-.57-7.73-.59-2.81-.03-6.85.1-12.3.54-1.23.15-1.76.82-1.76,1.83.06,7.23.12,14.46.18,21.69,0,1.35,1.76,2.39,2.99,1.75,2.52-1.07,5.03-2.14,7.55-3.21,2.69-1.13,5.39-2.26,8.08-3.39,2.11-.47,3.34,1.59,3.87,6.19.35,3.92-.17,7.47-1.75,10.65-2.99,5.52-8.43,8.4-16.33,10.84-2.28.6-3.86,2.57-3.86,4.75,0,11.94.18,18.84.36,20.87,0,1.51,1.06,2.74,2.63,2.81,5.62.59,9.48.93,11.59,1.03,1.93.09,4.21.03,6.5-.04,7.2-.51,11.76-2.5,15.8-7.63.53-.66,1.93-2.82,3.51-3.44.53-.09,1.05-.18,1.58-.27,3.34.14,4.92,4.68,4.92,13.8Z"/><path class="cls-1" d="m1335.42,17.6v30.15h-10.31v-30.15h-7.72v-8.17h25.7v8.17h-7.66Z"/><path class="cls-1" d="m1374.87,47.93c-6.31,0-12.34-.17-12.34-.17V9.43s6.2-.34,13.24-.34c9.19,0,13.19,3.83,13.19,8.96,0,4.39-2.53,7.5-5.35,8.35,3.78.9,7.15,4,7.15,9.3,0,7.55-5.12,12.23-15.89,12.23Zm-.4-32.08c-.9,0-2.14.06-2.14.06v9.07h4.45c1.06-.96,1.91-2.54,1.91-4.74,0-2.7-1.69-4.39-4.23-4.39Zm.62,15.5h-2.76v9.47s1.41.05,2.48.05c2.87,0,5.12-1.69,5.12-4.9,0-3.04-2.08-4.62-4.84-4.62Z"/><path class="cls-1" d="m1424.08,35.64h-2.71v12.12h-10.03V9.43s6.14-.34,12.68-.34c9.36,0,14.26,4.79,14.26,12.12,0,8.68-5.86,14.43-14.2,14.43Zm-.96-19.27c-.62,0-1.75.05-1.75.05v11.62h1.91c2.88,0,4.74-2.6,4.74-6.2,0-3.11-1.7-5.47-4.9-5.47Z"/><path class="cls-1" d="m1476.08,47.76h-10.93l-10.15-38.33h11.22l4.28,21.98c.34,2.09.62,5.93.62,5.93,0,0,.28-3.83.61-5.93l4.29-21.98h10.31l-10.26,38.33Z"/><path class="cls-1" d="m1522.64,47.76l-1.63-7.27h-8.51l-1.57,7.27h-10.37l10.42-38.33h12.18l10.48,38.33h-10.99Zm-5.3-25.54c-.34-1.69-.56-3.94-.56-3.94,0,0-.28,2.26-.67,3.94l-2.42,11.28h6.09l-2.43-11.28Z"/><path class="cls-1" d="m1085.44,28.28c0,3.02,188.76,3.02,188.76,3.02v-6.04s-188.76,0-188.76,3.02Z"/><path class="cls-1" d="m1765.16,28.28c0-3.02-188.76-3.02-188.76-3.02v6.04s188.76,0,188.76-3.02Z"/><path class="cls-1" d="m1541.54,9.45v9.33h-1.4v-9.33h-2.21v-1.26h5.83v1.26h-2.21Z"/><path class="cls-1" d="m1551.72,18.78l-.27-6.59v-1.06s-.15.87-.22,1.06l-2.12,6.59h-.95l-2.18-6.69c-.06-.2-.19-1.03-.19-1.03,0,0,.02.87.02,1.07l-.28,6.64h-1.39l.61-10.6h1.42l2.38,7.31c.11.34.17,1.07.17,1.07,0,0,.08-.72.17-1.06l2.31-7.32h1.4l.52,10.6h-1.4Z"/></g></svg>